<mxfile host="app.diagrams.net" modified="2021-11-28T23:07:46.333Z" agent="5.0 (Windows NT 10.0; Win64; x64) AppleWebKit/537.36 (KHTML, like Gecko) Chrome/96.0.4664.45 Safari/537.36" etag="x9j-0m6VZ4WLMhwlcatN" version="15.8.6" type="github">
  <diagram id="EH3LMMBSR9EJznRbWp0p" name="Page-1">
    <mxGraphModel dx="868" dy="593" grid="1" gridSize="1" guides="1" tooltips="1" connect="1" arrows="1" fold="1" page="1" pageScale="1" pageWidth="827" pageHeight="1169" math="0" shadow="0">
      <root>
        <mxCell id="0" />
        <mxCell id="1" parent="0" />
      </root>
    </mxGraphModel>
  </diagram>
</mxfile>
